<?xml version="1.0" standalone="no"?><!DOCTYPE svg PUBLIC "-//W3C//DTD SVG 1.1//EN" "http://www.w3.org/Graphics/SVG/1.1/DTD/svg11.dtd"><svg t="1611826842660" class="icon" viewBox="0 0 1024 1024" version="1.1" xmlns="http://www.w3.org/2000/svg" p-id="15447" xmlns:xlink="http://www.w3.org/1999/xlink" width="200" height="200"><defs><style type="text/css"></style></defs><path d="M72.147725 389.257819l23.097752 8.699906c0.699992 0.299997 1.399985 0.399996 2.199976 0.399996 0.89999 0 1.699982-0.199998 2.499973-0.499995 1.499984-0.699992 2.698971-1.89998 3.198966-3.399963 3.399963-8.899904 7.099924-17.798809 10.998882-26.397717 0.699992-1.499984 0.699992-3.199966 0.199998-4.699949-0.599994-1.499984-1.699982-2.79997-3.199966-3.499963l-22.397759-10.19789c-1.499984-0.699992-3.199966-0.699992-4.69995-0.199998-1.499984 0.599994-2.79897 1.699982-3.398963 3.199966-4.299954 9.398899-8.299911 18.997796-11.898873 28.696691-0.599994 1.499984-0.499995 3.199966 0.099999 4.69995 0.499995 1.499984 1.799981 2.598972 3.299965 3.198966z m-17.197815 58.793368l23.996742 5.699939c0.499995 0.099999 0.89999 0.199998 1.399985 0.199998 1.099988 0 2.299975-0.299997 3.199966-0.899991 1.399985-0.89999 2.399974-2.199976 2.799969-3.799959 2.199976-9.198901 4.69995-18.497801 7.49892-27.596703 0.999989-3.299965-0.799991-6.699928-4.099956-7.699918l-23.596747-7.198922c-3.299965-0.999989-6.699928 0.799991-7.699917 4.099956-2.999968 9.898894-5.699939 19.897786-8.098913 29.996677-0.699992 3.099967 1.299986 6.49993 4.599951 7.199923z m-9.199901 60.593349l24.497736 2.499973h0.599994c3.099967 0 5.799938-2.399974 6.099934-5.59994 0.89999-9.497898 2.199976-18.997796 3.79996-28.396695 0.599994-3.399963-1.699982-6.49893-5.099946-7.098923l-24.297739-4.099956c-3.399963-0.599994-6.49993 1.699982-7.099923 5.099945a446.885199 446.885199 0 0 0-4.098956 30.796669c-0.299997 3.399963 2.199976 6.399931 5.59994 6.799927zM884.560998 318.266581c4.999946 8.099913 9.798895 16.397824 14.297846 24.796734 1.099988 2.099977 3.199966 3.299965 5.399942 3.299964 0.999989 0 1.999979-0.199998 2.899969-0.699992l21.796766-11.598876c2.999968-1.599983 4.099956-5.299943 2.499973-8.29891-4.899947-9.098902-10.098892-18.197805-15.497833-26.99671-0.89999-1.399985-2.199976-2.399974-3.79996-2.79997-1.599983-0.399996-3.299965-0.099999-4.699949 0.799991l-20.997775 12.99886c-2.79997 1.799981-3.599961 5.59994-1.899979 8.498909z m-72.392222-88.39005c6.898926 6.49893 13.797852 13.297857 20.297781 20.297782 1.099988 1.199987 2.699971 1.89998 4.299954 1.899979h0.199998c1.599983 0 3.098967-0.599994 4.198955-1.699982l17.997807-16.898818c2.499973-2.299975 2.599972-6.199933 0.299996-8.698907-6.999925-7.499919-14.398845-14.89784-21.997763-21.997763-1.199987-1.099988-2.79997-1.699982-4.399953-1.699982-1.599983 0.099999-3.198966 0.799991-4.298954 1.89998l-16.897818 17.997806c-2.399974 2.699971-2.199976 6.599929 0.299997 8.899905z m39.09558 41.794551c5.999936 7.399921 11.898872 14.998839 17.397813 22.697756 0.999989 1.299986 2.399974 2.199976 3.999957 2.499973 0.299997 0.099999 0.699992 0.099999 0.999989 0.099999 1.299986 0 2.499973-0.399996 3.599961-1.199987l20.096784-14.397846c1.299986-0.999989 2.199976-2.399974 2.499974-3.999957 0.299997-1.599983-0.099999-3.299965-1.099989-4.59995-5.999936-8.39891-12.398867-16.697821-18.897797-24.696735-0.999989-1.299986-2.499973-2.099977-4.199955-2.199976-1.599983-0.199998-3.299965 0.299997-4.499951 1.399985l-19.096795 15.597832c-2.599972 2.299975-2.999968 6.199933-0.799991 8.799906z m60.093354 92.390007c-0.599994 1.499984-0.499995 3.199966 0.099999 4.69995 3.899958 8.699907 7.599918 17.597811 10.898883 26.496715 0.89999 2.499973 3.299965 3.999957 5.799938 3.999957 0.699992 0 1.399985-0.099999 2.199976-0.399996l23.096752-8.599907c1.499984-0.599994 2.79997-1.698982 3.499962-3.198966 0.699992-1.499984 0.699992-3.199966 0.199998-4.699949-3.599961-9.697896-7.599918-19.296793-11.799873-28.696692-1.399985-3.099967-4.998946-4.499952-8.198912-3.099967l-22.496758 10.099892c-1.499984 0.699992-2.699971 1.89998-3.299965 3.399963z m-814.611249-30.896668l21.696767 11.699874c0.89999 0.499995 1.89998 0.699992 2.899969 0.699993 0.599994 0 1.199987-0.099999 1.79998-0.299997 1.599983-0.499995 2.899969-1.499984 3.69996-2.999968 4.499952-8.39991 9.2989-16.698821 14.397846-24.797733 0.89999-1.399985 1.099988-3.099967 0.799991-4.69995-0.399996-1.599983-1.399985-2.999968-2.699971-3.799959l-20.897775-12.99786c-1.399985-0.89999-3.099967-1.099988-4.69995-0.799992-1.598983 0.399996-2.998968 1.399985-3.798959 2.699971a481.485828 481.485828 0 0 0-15.597832 26.896711c-1.699982 3.099967-0.599994 6.799927 2.399974 8.39991z m834.809032 89.291041c2.699971 9.098902 5.199944 18.397802 7.399921 27.696702l0.099998 0.599994c0.699992 2.899969 3.198966 4.799948 5.998936 4.799948 0.499995 0 0.89999-0.099999 1.399985-0.199997l23.996742-5.499941c1.599983-0.399996 2.999968-1.399985 3.899958-2.699971 0.89999-1.399985 1.099988-3.099967 0.799992-4.69995l-0.199998-0.699992c-2.299975-9.997893-4.999946-20.096784-7.999914-29.995678-0.499995-1.599983-1.499984-2.899969-2.999968-3.69996-1.398985-0.799991-3.098967-0.89999-4.698949-0.499995l-23.596747 7.099924c-3.199966 1.099988-5.099945 4.499952-4.099956 7.798916z m42.495544 45.294513l-24.297739 3.999957c-3.399963 0.499995-5.59994 3.69996-5.099946 7.099924 1.499984 9.397899 2.79997 18.996796 3.699961 28.395695 0.299997 3.199966 2.999968 5.59994 6.099934 5.59994h0.599994l24.496736-2.399974c1.599983-0.199998 3.099967-0.999989 4.199955-2.199977 0.999989-1.299986 1.499984-2.899969 1.399985-4.499951-0.999989-10.19789-2.299975-20.596779-3.999957-30.79567-0.299997-1.599983-1.199987-3.099967-2.499973-3.999957-1.299986-0.999989-2.999968-1.399985-4.59995-1.199987z m-208.677759-278.170012c0.299997 1.599983 1.199987 3.099967 2.499973 3.999958a426.025424 426.025424 0 0 1 22.697757 17.397813c1.099988 0.89999 2.499973 1.399985 3.899958 1.399985 1.799981 0 3.499962-0.799991 4.798948-2.299976l15.597833-19.097795c0.999989-1.299986 1.499984-2.899969 1.399984-4.499951-0.199998-1.599983-0.999989-3.098967-2.199976-4.198955-7.998914-6.49993-16.297825-12.898861-24.596736-18.897797-2.79997-1.999979-6.599929-1.399985-8.599907 1.399985l-14.397846 19.997785c-0.999989 1.499984-1.399985 3.199966-1.099988 4.799948z m-580.536764 60.194354c1.199987 1.099988 2.699971 1.699982 4.199955 1.699982 1.599983 0 3.299965-0.699992 4.499952-1.89998 6.49793-6.899926 13.297857-13.798852 20.296782-20.297782 2.499973-2.299975 2.599972-6.199933 0.299997-8.699906l-16.897819-17.997807c-1.099988-1.199987-2.699971-1.89998-4.299954-1.89998-1.599983-0.099999-3.199966 0.499995-4.399952 1.699982-7.498919 6.999925-14.89784 14.398845-21.996764 21.997764-2.299975 2.499973-2.199976 6.399931 0.299997 8.699906l17.997806 16.697821z m-56.294395 30.996667l19.997785 14.397845c1.099988 0.799991 2.299975 1.199987 3.599962 1.199987 1.89998 0 3.799959-0.89999 4.999946-2.599972 5.499941-7.698917 11.398878-15.397835 17.497812-22.696756 2.199976-2.599972 1.799981-6.49993-0.89999-8.699906l-19.097795-15.697832c-2.599972-2.199976-6.49993-1.799981-8.699907 0.899991-6.49893 7.998914-12.897861 16.197826-18.896797 24.596735-0.999989 1.299986-1.299986 2.999968-1.099988 4.599951s1.299986 3.099967 2.599972 3.999957z m98.088946-71.292234c0.999989 1.299986 2.499973 2.099977 4.199955 2.199976h0.599994c1.399985 0 2.79997-0.499995 3.899958-1.399985 7.399921-5.999936 14.998839-11.899872 22.697756-17.398813 2.79997-1.999979 3.399963-5.799938 1.399985-8.598908l-14.298846-20.097784c-0.999989-1.299986-2.399974-2.199976-3.999957-2.499973-1.599983-0.299997-3.299965 0.099999-4.599951 1.099988-8.39791 5.999936-16.696821 12.398867-24.696735 18.897797-2.599972 2.199976-2.999968 5.999936-0.89999 8.699907l15.698831 19.097795z m303.867736 778.914632c-1.199987-1.099988-2.79997-1.699982-4.399952-1.699981-9.497898 0.299997-19.097795 0.299997-28.596693 0-3.399963-0.099999-6.298932 2.499973-6.398932 5.999935l-0.799991 24.597736c-0.099999 1.599983 0.499995 3.199966 1.699982 4.399953 1.099988 1.199987 2.699971 1.89898 4.299954 1.998978 5.298943 0.199998 10.697885 0.299997 15.997828 0.299997 4.999946 0 9.998893-0.099999 14.998839-0.199998 1.599983-0.099999 3.199966-0.799991 4.299953-1.899979 1.098988-1.199987 1.698982-2.79997 1.698982-4.399953l-0.799991-24.596736c-0.099999-1.89998-0.799991-3.399963-1.999979-4.499952z m170.182172-37.095601c-1.399985-3.099967-4.999946-4.499952-8.199912-3.099967-8.698907 3.899958-17.597811 7.499919-26.496715 10.899883-3.199966 1.199987-4.799948 4.69895-3.599961 7.898915l8.599907 23.096752c0.89999 2.499973 3.299965 3.999957 5.798938 3.999957 0.699992 0 1.399985-0.099999 2.199976-0.399995 9.698896-3.599961 19.297793-7.599918 28.696692-11.798874 1.499984-0.699992 2.699971-1.89998 3.199966-3.399963 0.599994-1.499984 0.499995-3.199966-0.099999-4.69995l-10.099892-22.496758zM412.511069 975.294523c-9.199901-2.199976-18.497801-4.69995-27.597704-7.499919-3.299965-0.999989-6.698928 0.799991-7.698917 4.099956l-7.199923 23.597746c-0.998989 3.299965 0.799991 6.699928 4.099956 7.698918 9.899894 2.999968 19.898786 5.799938 29.997678 8.099913 0.499995 0.099999 0.999989 0.199998 1.399985 0.199997 2.79997 0 5.298943-1.89998 5.998935-4.799948l5.699939-23.997742c0.399996-1.599983 0.099999-3.299965-0.799991-4.69995-0.999989-1.299986-2.299975-2.299975-3.899958-2.699971z m-54.694413-16.69882c-8.899904-3.399963-17.797809-7.098924-26.396716-10.998882-3.099967-1.399985-6.799927 0-8.199912 3.099966l-10.198891 22.39776c-1.399985 3.099967 0 6.799927 3.099967 8.199912 9.399899 4.298954 18.997796 8.297911 28.696692 11.997871 0.699992 0.299997 1.499984 0.399996 2.199976 0.399996 2.499973 0 4.799948-1.499984 5.799938-3.999957l8.698907-23.096752c0.999989-3.299965-0.599994-6.799927-3.699961-7.999914z m111.088807 26.097719c-9.399899-0.89999-18.998796-2.199976-28.397695-3.799959-3.399963-0.599994-6.49993 1.699982-7.099924 5.099945l-4.098956 24.296739c-0.299997 1.599983 0.099999 3.299965 1.099988 4.599951 0.89999 1.299986 2.399974 2.199976 3.999957 2.499973 10.19889 1.699982 20.49778 3.099967 30.79667 4.099956h0.599993c1.399985 0 2.79997-0.499995 3.899958-1.399985 1.298986-0.999989 2.098977-2.499973 2.198977-4.199955l2.499973-24.497737c0.299997-3.299965-2.099977-6.299932-5.499941-6.699928z m177.580092-12.298868c-0.999989-3.299965-4.399953-5.099945-7.699917-4.099956-8.898904 2.699971-18.097806 5.099945-27.196708 7.199923l-0.499994 0.099999c-3.299965 0.799991-5.399942 4.099956-4.599951 7.398921l5.59994 23.997742c0.399996 1.599983 1.399985 2.999968 2.699971 3.799959 0.999989 0.599994 2.099977 0.89999 3.299964 0.89999 0.499995 0 0.89999-0.099999 1.399985-0.199998l0.499995-0.099999c9.897894-2.299975 19.797787-4.899947 29.496683-7.799916 3.299965-0.999989 5.099945-4.399953 4.099956-7.699917l-7.099924-23.496748z m-56.394394 13.798852c-0.299997-1.599983-1.199987-3.099967-2.499973-3.999957-1.299986-0.999989-2.999968-1.299986-4.598951-1.099988-9.398899 1.499984-18.997796 2.79997-28.396695 3.69996-1.599983 0.199998-3.099967 0.999989-4.199954 2.199977-0.999989 1.299986-1.499984 2.899969-1.399985 4.499951l2.399974 24.496737c0.199998 1.599983 0.999989 3.099967 2.199976 4.199955 1.099988 0.89999 2.499973 1.399985 3.899958 1.399985h0.599994c10.297889-0.999989 20.596779-2.399974 30.795669-3.999957 3.399963-0.599994 5.59994-3.69996 5.099945-7.099924l-3.899958-24.296739zM512.599994 0C383.614379 0 279.025503 104.588876 279.025503 233.574491S383.614379 467.148982 512.599994 467.148982s233.574491-104.588876 233.57449-233.574491S641.585608 0 512.599994 0z m-0.699993 69.992248c36.595607 0 66.193289 29.596682 66.193289 66.193289S548.495608 202.377826 511.900001 202.377826s-66.193289-29.596682-66.193289-66.192289 29.597682-66.193289 66.193289-66.193289z m79.391147 288.468901H435.207825c-15.297836 0-27.696702-12.498866-27.496705-27.796701l0.599994-61.193343c0-30.996667 25.197729-56.194396 56.194396-56.194396l22.796755 46.395502c9.899894 20.097784 38.296589 20.697778 48.895475 0.999989l25.696724-47.395491c31.096666 0 56.194396 25.197729 56.194396 56.194396l0.599994 61.193343c0.299997 15.297836-12.09987 27.796701-27.397706 27.796701zM405.711142 539.541204c-2.79997-2.79997-5.699939-5.499941-8.598908-8.198912-3.199966-2.899969-6.599929-5.799938-9.998892-8.499908-2.299975-1.798981-4.499952-3.598961-6.899926-5.398942-5.998936-4.499952-12.197869-8.698907-18.596801-12.597865-3.199966-1.999979-6.49993-3.799959-9.799894-5.59994-2.79997-1.499984-5.59894-2.899969-8.39891-4.299954-1.399985-0.699992-2.699971-1.299986-4.099956-1.999978-1.89898-0.89999-3.798959-1.698982-5.698939-2.598972-4.199955-1.799981-8.498909-3.599961-12.897861-5.199945-1.799981-0.699992-3.599961-1.299986-5.399942-1.899979-2.199976-0.799991-4.499952-1.498984-6.699928-2.098978-3.198966-0.999989-6.49893-1.89998-9.797895-2.79997-1.89998-0.499995-3.69996-0.89999-5.59994-1.399984-3.799959-0.89999-7.598918-1.599983-11.398877-2.299976-1.89998-0.299997-3.799959-0.699992-5.798938-0.999989-3.899958-0.599994-7.799916-1.099988-11.698874-1.499984-7.898915-0.798991-15.79783-1.198987-23.896744-1.198987-10.099892 0-19.998785 0.599994-29.697681 1.89998-10.298889 1.299986-20.297782 3.299965-30.096676 5.899936-2.699971 0.699992-5.299943 1.499984-7.898916 2.298975-7.899915 2.399974-15.597832 5.199944-23.097751 8.299911-6.098934 2.598972-11.997871 5.398942-17.797809 8.39791-2.499973 1.299986-5.099945 2.699971-7.599919 4.099956-3.298965 1.89998-6.49793 3.799959-9.597897 5.899937-3.199966 1.999979-6.299932 4.098956-9.2999 6.298932l-4.498951 3.299965c-2.999968 2.199976-5.899937 4.598951-8.798906 6.898925-1.399985 1.199987-2.899969 2.399974-4.299954 3.599962C38.351088 570.936867 7.055424 634.131188 7.055424 704.72243c0 60.49335 22.997753 115.587758 60.693348 156.983313 11.299879 12.398867 23.897743 23.697745 37.696595 33.396642 3.099967 2.199976 6.199933 4.299954 9.2989 6.298932 3.199966 1.999979 6.399931 3.999957 9.598897 5.899937a232.572502 232.572502 0 0 0 86.490071 29.096687c9.699896 1.199987 19.697788 1.89998 29.697681 1.89998 8.098913 0 15.997828-0.399996 23.896743-1.199987 3.899958-0.399996 7.799916-0.89999 11.698875-1.499984 1.89998-0.299997 3.899958-0.599994 5.799937-0.99999 3.799959-0.699992 7.598918-1.499984 11.397878-2.299975 3.799959-0.89999 7.499919-1.799981 11.19988-2.899969 3.69896-0.999989 7.398921-2.199976 10.997882-3.399963 1.799981-0.599994 3.599961-1.199987 5.399942-1.89998 8.898904-3.298965 17.597811-7.098924 25.99672-11.397877 4.999946-2.599972 9.999893-5.299943 14.798841-8.299911 6.399931-3.898958 12.597865-8.098913 18.597801-12.597865 1.499984-1.099988 2.999968-2.299975 4.499951-3.399963 54.393416-42.79554 89.38904-109.188827 89.38904-183.680027-0.099999-64.493307-26.196719-122.88668-68.492264-165.182226z m-165.881218 1.599983c36.595607 0 66.192289 29.596682 66.192289 66.193289s-29.596682 66.192289-66.192289 66.192289-66.193289-29.596682-66.193289-66.192289 29.696681-66.193289 66.193289-66.193289z m79.391147 288.468901H163.237746c-15.297836 0-27.696702-12.498866-27.496704-27.796701l0.599993-61.193343c0-30.996667 25.196729-56.194396 56.193397-56.194396l22.797755 46.395501c9.898894 20.097784 38.295589 20.697778 48.894475 0.99999l25.697724-47.395491c31.096666 0 56.193396 25.197729 56.193396 56.194396l0.599993 61.193343c0.199998 15.297836-12.09887 27.796701-27.496704 27.796701z m630.531227-290.068884c-2.79997-2.79997-5.699939-5.499941-8.598908-8.198912-3.199966-2.899969-6.599929-5.799938-9.998893-8.499908-2.299975-1.798981-4.499952-3.598961-6.899926-5.398942-4.498952-3.399963-9.097902-6.598929-13.89785-9.598897-4.69995-2.999968-9.598897-5.898937-14.597843-8.598908-6.599929-3.599961-13.399856-6.899926-20.397781-9.798895-3.499962-1.499984-6.999925-2.899969-10.599886-4.199955-3.599961-1.299986-7.198923-2.499973-10.897883-3.69896-3.69996-1.099988-7.399921-2.199976-11.099881-3.099967-9.2979-2.399974-18.896797-4.199955-28.596693-5.49994-9.698896-1.199987-19.697788-1.89898-29.696681-1.89898-12.09787 0-23.996742 0.89999-35.595618 2.699971-1.89998 0.299997-3.899958 0.599994-5.799937 0.999989-3.799959 0.699992-7.598918 1.499984-11.397878 2.299975-1.89998 0.399996-3.799959 0.89999-5.59994 1.399985-3.299965 0.799991-6.599929 1.799981-9.798894 2.79897-2.299975 0.699992-4.499952 1.399985-6.699928 2.099978-3.598961 1.199987-7.198923 2.499973-10.697885 3.899958-2.299975 0.89999-4.599951 1.89998-6.899926 2.79997-2.399974 0.998989-4.799948 2.098977-7.098924 3.198965-1.099988 0.499995-2.199976 1.099988-3.299965 1.599983-2.79997 1.399985-5.59894 2.79997-8.398909 4.299954-6.599929 3.598961-12.99786 7.498919-19.297793 11.697874-1.599983 0.999989-3.099967 2.099977-4.599951 3.199966-2.699971 1.89998-5.298943 3.899958-7.998914 5.899937-0.599994 0.499995-1.299986 0.999989-1.899979 1.499984-3.299965 2.598972-6.598929 5.398942-9.797895 8.197911-6.999925 6.199933-13.599854 12.798863-19.798787 19.797788-12.397867 13.99885-23.196751 29.396684-31.995657 46.095505-0.799991 1.399985-1.499984 2.899969-2.199976 4.299953l-3.299965 6.898926c-0.499995 1.099988-0.999989 2.099977-1.499984 3.199966-4.199955 9.498898-7.798916 19.297793-10.698885 29.296685-0.299997 0.89999-0.499995 1.799981-0.799991 2.79997-5.499941 19.896786-8.498909 40.794562-8.498909 62.39233 0 60.49335 22.997753 115.587758 60.693348 156.983314 4.999946 5.499941 10.299889 10.798884 15.798831 15.79783 6.899926 6.299932 14.197847 12.199869 21.797765 17.598811 1.499984 1.099988 3.099967 2.199976 4.599951 3.199965a219.976637 219.976637 0 0 0 19.296793 11.697875c1.699982 0.89999 3.299965 1.799981 4.999946 2.599972 6.699928 3.399963 13.597854 6.599929 20.697778 9.398899 3.499962 1.399985 7.099924 2.699971 10.698885 3.899958 3.599961 1.199987 7.298922 2.399974 10.998882 3.399964s7.398921 1.999979 11.198879 2.898968c3.799959 0.89999 7.598918 1.599983 11.397878 2.299976 1.89998 0.299997 3.799959 0.699992 5.799938 0.999989 11.598875 1.799981 23.497748 2.699971 35.595617 2.699971 10.099892 0 19.997785-0.599994 29.697681-1.89998 17.497812-2.199976 34.495629-6.399931 50.594457-12.299868 7.198923-2.598972 14.097849-5.59894 20.997774-8.897904a227.697554 227.697554 0 0 0 24.596736-13.798852c4.69995-2.999968 9.399899-6.199933 13.898851-9.599897 1.499984-1.098988 2.999968-2.298975 4.499951-3.398963 54.393416-42.79554 89.38904-109.188827 89.38904-183.680027 0.099999-64.093311-25.996721-122.486684-68.292266-164.78223z m-165.882218 1.599983c36.596607 0 66.193289 29.596682 66.193288 66.193289s-29.596682 66.192289-66.193288 66.192289-66.192289-29.596682-66.192289-66.192289 29.696681-66.193289 66.192289-66.193289z m79.492146 288.468901H707.277902c-15.298836 0-27.696702-12.498866-27.496704-27.796701l0.599993-61.193343c0-30.996667 25.196729-56.194396 56.193397-56.194396l22.797755 46.395501c9.898894 20.097784 38.295589 20.697778 48.894474 0.99999l25.697724-47.395491c31.096666 0 56.193396 25.197729 56.193397 56.194396l0.599993 61.193343c0.299997 15.297836-12.09887 27.796701-27.396705 27.796701zM524.598865 490.046736H500.600122c-2.899969 0-5.299943 2.399974-5.299943 5.299943v30.196676c0 2.899969 2.399974 5.299943 5.299943 5.299943H524.599865c2.899969 0 5.299943-2.399974 5.299943-5.299943v-30.196676c0-2.899969-2.399974-5.299943-5.299943-5.299943z m13.397856 51.19445L520.999903 558.239003c-2.099977 2.099977-2.099977 5.399942 0 7.399921l21.297772 21.297771c2.099977 2.099977 5.399942 2.099977 7.39992 0l16.997817-16.998817c2.099977-2.099977 2.099977-5.399942 0-7.398921l-21.297771-21.297771c-2.099977-1.999979-5.399942-1.999979-7.39992 0z m-33.695638 16.997817l-16.998818-16.997817c-2.099977-2.099977-5.399942-2.099977-7.39892 0l-21.297771 21.297771c-2.099977 2.099977-2.099977 5.399942 0 7.399921l16.998817 16.997817c2.099977 2.099977 5.398942 2.099977 7.39892 0l21.297772-21.297771c1.999979-1.999979 1.999979-5.299943 0-7.399921z" p-id="15448"></path></svg>