<?xml version="1.0" standalone="no"?><!DOCTYPE svg PUBLIC "-//W3C//DTD SVG 1.1//EN" "http://www.w3.org/Graphics/SVG/1.1/DTD/svg11.dtd"><svg t="1611826202880" class="icon" viewBox="0 0 1235 1024" version="1.1" xmlns="http://www.w3.org/2000/svg" p-id="11028" xmlns:xlink="http://www.w3.org/1999/xlink" width="241.2109375" height="200"><defs><style type="text/css"></style></defs><path d="M1165.234185 811.982379a552.599119 552.599119 0 0 0-451.101322-597.709251 128.563877 128.563877 0 1 0-196.229074 0A552.599119 552.599119 0 0 0 66.802467 811.982379a110.519824 110.519824 0 0 0 42.854626 212.017621h1014.977973a110.519824 110.519824 0 0 0 40.599119-212.017621zM617.146079 54.132159A74.431718 74.431718 0 1 1 542.714361 128.563877a74.431718 74.431718 0 0 1 74.431718-74.431718z m0 205.251101a498.46696 498.46696 0 0 1 496.211454 496.211454c0 15.788546 0 29.321586-2.255507 47.365638H120.934626c-2.255507-15.788546-2.255507-31.577093-2.255507-47.365638a498.46696 498.46696 0 0 1 496.211454-496.211454z m507.488987 708.229075H111.912599a54.132159 54.132159 0 0 1-6.76652-110.519824h1026.255507a54.132159 54.132159 0 0 1-6.76652 110.519824z" p-id="11029"></path><path d="M292.353128 541.321586a27.066079 27.066079 0 0 0 27.066079-27.066079c0-15.788546 20.299559-47.365639 65.409692-81.198238a221.039648 221.039648 0 0 1 106.00881-49.621146 27.066079 27.066079 0 1 0 0-54.132158c-42.854626 0-101.497797 31.577093-139.841409 60.898678s-85.709251 72.176211-85.709252 126.30837a27.066079 27.066079 0 0 0 27.06608 24.810573z" p-id="11030"></path></svg>