<?xml version="1.0" standalone="no"?><!DOCTYPE svg PUBLIC "-//W3C//DTD SVG 1.1//EN" "http://www.w3.org/Graphics/SVG/1.1/DTD/svg11.dtd"><svg t="1611826228600" class="icon" viewBox="0 0 1024 1024" version="1.1" xmlns="http://www.w3.org/2000/svg" p-id="11876" xmlns:xlink="http://www.w3.org/1999/xlink" width="200" height="200"><defs><style type="text/css"></style></defs><path d="M831.0784 897.4336l1.8432 1.8432h0.6144c4.7104 4.096 11.264 6.5536 17.6128 6.5536 6.9632 0 14.1312-2.2528 19.456-7.5776l74.752-69.4272c5.3248-4.7104 7.5776-11.264 7.5776-17.6128-0.6144-6.5536-4.096-12.9024-9.4208-16.9984-10.0352-10.0352-27.0336-10.6496-37.6832-0.6144L876.9536 819.2v-131.6864c0-13.5168-11.6736-24.7808-25.8048-24.7808-14.1312 0-25.8048 11.264-25.8048 24.7808v132.3008l-28.8768-25.8048c-10.6496-9.4208-27.0336-9.4208-37.6832 0.6144-5.3248 5.3248-8.192 11.6736-8.192 18.2272s2.8672 12.9024 7.5776 16.9984l72.9088 67.584zM595.7632 665.1904l-75.3664 69.4272c-4.7104 4.7104-7.5776 10.6496-7.5776 16.9984 0 6.9632 2.8672 13.5168 8.192 18.2272 10.6496 10.0352 27.648 10.6496 37.6832 0.6144l28.8768-25.8048v132.9152c0 13.5168 11.6736 24.7808 25.8048 24.7808s25.8048-11.264 25.8048-24.7808v-132.3008l28.8768 25.8048c10.6496 9.4208 27.648 9.4208 37.6832-0.6144 5.9392-4.7104 9.4208-10.6496 10.0352-17.6128 0.6144-6.5536-2.2528-12.9024-7.5776-17.6128l-71.68-66.56-2.2528-2.2528c-10.6496-10.0352-27.0336-10.6496-37.0688-1.2288h-1.4336zM953.1392 346.112c-0.2048-8.8064-2.4576-17.6128-6.5536-26.0096l0.2048-0.2048s-101.1712-172.8512-101.9904-174.2848C835.584 127.5904 825.344 112.64 781.7216 112.64H270.1312c-35.84 0-52.0192 14.7456-65.536 37.0688l-97.8944 167.1168-0.2048 0.4096v0.4096c-4.9152 9.216-7.5776 18.8416-7.9872 28.672 0 0.2048-0.2048 0.4096-0.2048 0.8192v149.2992c0 71.0656 55.0912 129.024 122.88 129.024 40.7552 0 78.4384-21.0944 101.5808-56.32 22.9376 35.2256 60.8256 56.32 101.5808 56.32 40.7552 0 78.4384-21.0944 101.5808-56.32 22.9376 35.2256 60.8256 56.32 101.5808 56.32s78.4384-21.0944 101.5808-56.32c22.9376 35.2256 60.8256 56.32 101.5808 56.32 67.7888 0 122.88-57.7536 122.88-129.024v-149.2992c-0.2048-0.4096-0.2048-0.6144-0.4096-1.024zM243.0976 172.8512c6.5536-10.8544 14.5408-15.36 27.0336-15.36h511.5904c12.9024 0 18.6368 1.2288 27.0336 15.36 15.36 25.8048 59.1872 98.7136 66.3552 110.3872h-698.368c7.168-11.8784 50.7904-84.992 66.3552-110.3872z m667.4432 323.584c0 46.4896-36.0448 84.1728-80.0768 84.1728-44.2368 0-80.0768-37.888-80.0768-84.1728V475.136c0-12.288-9.6256-22.3232-21.2992-22.3232-11.8784 0-21.2992 10.0352-21.2992 22.3232v21.2992c0 46.4896-36.0448 84.1728-80.0768 84.1728-44.2368 0-80.0768-37.888-80.0768-84.1728V475.136c0-12.288-9.6256-22.3232-21.2992-22.3232-11.8784 0-21.2992 10.0352-21.2992 22.3232v21.2992c0 46.4896-35.84 84.1728-80.0768 84.1728s-80.0768-37.888-80.0768-84.1728V475.136c0-12.288-9.6256-22.3232-21.2992-22.3232s-21.2992 10.0352-21.2992 22.3232v21.2992c0 46.4896-36.0448 84.1728-80.0768 84.1728-44.2368 0-80.0768-37.888-80.0768-84.1728v-149.0944c0.4096-11.0592 9.216-19.456 20.0704-19.456h729.088c10.8544 0 19.6608 8.6016 20.0704 19.456l-0.8192 149.0944zM497.664 926.3104H204.3904c-11.6736 0-21.0944-9.4208-21.0944-21.0944V693.4528c0-11.6736-9.4208-21.0944-21.0944-21.0944-11.6736 0-21.0944 9.4208-21.0944 21.0944V905.216c0 35.0208 28.4672 63.488 63.488 63.488h294.0928c35.84 0 37.888-43.008-1.024-42.3936z" p-id="11877"></path></svg>