<?xml version="1.0" standalone="no"?><!DOCTYPE svg PUBLIC "-//W3C//DTD SVG 1.1//EN" "http://www.w3.org/Graphics/SVG/1.1/DTD/svg11.dtd"><svg t="1611826208380" class="icon" viewBox="0 0 1024 1024" version="1.1" xmlns="http://www.w3.org/2000/svg" p-id="11169" xmlns:xlink="http://www.w3.org/1999/xlink" width="200" height="200"><defs><style type="text/css"></style></defs><path d="M223.819512 726.527056c94.239794 70.050818 188.36522 92.181158 292.326353 92.181159 104.361423 0 217.07176-41.458647 287.751605-100.873178C893.505333 766.484615 972.820015 876.564472 974.421176 983.056012H51.23717c12.866477-126.491763 100.873178-217.643603 172.582342-256.528956M797.721561 670.700843c-75.254593 69.078684-176.127771 111.051991-287.179762 111.051991a424.736695 424.736695 0 0 1-287.179762-110.594516C88.635729 738.764506 0 859.652203 0 1024h1023.942816c0.114369-164.404981-90.065338-285.692969-226.221255-353.284861M177.728933 521.235271V260.589043l-11.208131 0.457475C225.878148 132.496119 357.516502 43.402915 510.541799 43.402915c152.567823 0 284.206176 89.093204 343.563523 217.643603l-10.750656-0.457475v260.646228c73.195957 0 133.125147-58.328028 133.125146-130.094376 0-49.178534-27.677221-91.609315-68.621209-114.139946C851.017368 115.741107 694.846931 0 510.541799 0S170.123415 115.683922 112.653152 276.943765c-40.943988 22.53063-68.049366 64.961412-68.049366 114.139945 0 71.709164 59.357346 130.094377 133.125147 130.094377m332.241023 126.377394c-133.125147 0-240.631708-105.447925-240.631708-235.485117s114.139945-235.485118 240.631708-235.485118c132.553303 0 240.174234 105.447925 240.174233 235.485118s-107.506562 235.485118-240.174233 235.485117m0.571843-517.060814c-159.201206 0-288.20908 126.491763-288.20908 282.14754 0 156.113252 129.007874 282.605015 288.20908 282.605015 158.686547 0 287.751606-126.491763 287.751606-282.605015 0-155.655777-129.122243-282.14754-287.751606-282.14754" p-id="11170"></path></svg>