<?xml version="1.0" standalone="no"?><!DOCTYPE svg PUBLIC "-//W3C//DTD SVG 1.1//EN" "http://www.w3.org/Graphics/SVG/1.1/DTD/svg11.dtd"><svg t="1611826212092" class="icon" viewBox="0 0 1025 1024" version="1.1" xmlns="http://www.w3.org/2000/svg" p-id="11309" xmlns:xlink="http://www.w3.org/1999/xlink" width="200.1953125" height="200"><defs><style type="text/css"></style></defs><path d="M642.97 1022.986h-0.311a23.199 23.199 0 0 1-19.442-10.537c-24.646-37.797-66.22-60.362-111.216-60.362-44.997 0-86.571 22.565-111.216 60.362a23.21 23.21 0 0 1-19.442 10.537c-4.076 0-8.388-1.072-11.912-3.109l-225.24-130.04c-10.687-6.171-14.679-19.624-9.085-30.625 20.477-40.267 19.251-87.603-3.273-126.614-22.713-39.348-63.443-64.089-108.955-66.183A23.228 23.228 0 0 1 3.84 654.819l-0.738-1.273a23.199 23.199 0 0 1-3.101-11.593V383.026c0-12.445 9.814-22.677 22.25-23.192 45.772-1.894 86.737-26.646 109.577-66.216 23.166-40.126 23.861-88.489 1.857-129.357a23.225 23.225 0 0 1 0.288-22.533c2.037-3.566 5.041-6.615 8.597-8.667L367.658 3.11c10.867-6.268 24.767-2.77 31.358 7.905 24.395 39.52 66.633 63.11 112.98 63.11 46.346 0 88.584-23.59 112.99-63.11 6.6-10.676 20.499-14.172 31.352-7.905l225.084 129.952a23.21 23.21 0 0 1 8.54 8.574c3.98 6.954 4.147 15.57 0.35 22.621-22.005 40.883-21.308 89.245 1.853 129.362 22.848 39.564 63.81 64.317 109.582 66.216 12.436 0.515 22.25 10.747 22.25 23.192v258.928c0 4.072-1.068 8.064-3.102 11.592l-0.733 1.273a23.219 23.219 0 0 1-19.042 11.596c-45.512 2.094-86.241 26.835-108.96 66.183-22.524 39.017-23.744 86.357-3.27 126.614 5.595 10.997 1.603 24.455-9.083 30.625l-225.241 130.04a23.174 23.174 0 0 1-11.596 3.109zM511.997 905.668c53.379 0 103.184 23.509 137.035 63.808L838.71 859.968c-17.98-49.458-13.443-104.337 13.253-150.581 27.055-46.858 73.017-78.37 125.616-87.093v-218.37c-52.605-8.708-98.53-40.19-125.616-87.1-27.472-47.586-31.533-103.752-11.981-154.09L651.437 53.88c-33.818 42.104-84.482 66.661-139.44 66.661-54.955 0-105.623-24.562-139.437-66.66L184.011 162.737c19.554 50.34 15.492 106.5-11.985 154.091-27.083 46.904-73.007 78.392-125.612 87.101V622.3c52.6 8.723 98.557 40.238 125.612 87.091 26.696 46.24 31.236 101.115 13.258 150.581L374.955 969.48c33.856-40.308 83.661-63.812 137.042-63.812z" p-id="11310"></path><path d="M511.997 730.201c-119.638 0-216.974-97.336-216.974-216.974 0-119.64 97.336-216.978 216.974-216.978 119.64 0 216.978 97.337 216.978 216.978-0.001 119.638-97.337 216.974-216.978 216.974z m0-387.535c-94.045 0-170.552 76.513-170.552 170.557 0 94.045 76.507 170.553 170.552 170.553 94.044 0 170.556-76.508 170.556-170.553 0-94.044-76.516-170.557-170.556-170.557z" p-id="11311"></path></svg>